<?xml version="1.0" encoding="UTF-8" standalone="no"?> <svg height="511pt" viewBox="1 -20 511.99998 511" width="511pt" xmlns="http://www.w3.org/2000/svg"><path d="m256.0625 462.386719c0-22.121094-17.929688-40.054688-40.050781-40.054688h-206.015625v-411.835937h206.015625c22.121093 0 40.050781 17.933594 40.050781 40.054687v408.773438" fill="#fff"/><path d="m255.9375 462.386719c0-22.121094 17.929688-40.054688 40.050781-40.054688h206.011719v-411.835937h-206.011719c-22.121093 0-40.050781 17.933594-40.050781 40.054687v408.773438" fill="#fff"/><path d="m103.972656 422.332031h397.902344v40.054688h-397.902344zm0 0" fill="#feda9b"/><path d="m110.472656 70.484375h105.472656v39.988281h-105.472656zm0 0" fill="#4dbaf6"/><path d="m110.472656 250.4375h105.472656v119.972656h-105.472656zm0 0" fill="#a0e557"/><path d="m356.410156 70.484375h105.601563v119.96875h-105.601563zm0 0" fill="#a0e557"/><path d="m215.945312 60.484375h-165.957031c-5.519531 0-10 4.476563-10 10v39.988281c0 5.519532 4.480469 9.996094 10 9.996094h165.957031c5.523438 0 10-4.476562 10-9.996094v-39.988281c0-5.523437-4.476562-10-10-10zm-9.996093 39.992187h-145.964844v-19.996093h145.964844zm0 0"/><path d="m215.945312 148.464844h-165.957031c-5.519531 0-10 4.476562-10 9.996094 0 5.519531 4.480469 9.996093 10 9.996093h165.957031c5.523438 0 10-4.476562 10-9.996093 0-5.519532-4.476562-9.996094-10-9.996094zm0 0"/><path d="m215.945312 188.453125h-165.957031c-5.519531 0-10 4.476563-10 9.996094 0 5.523437 4.480469 10 10 10h165.957031c5.523438 0 10-4.476563 10-10 0-5.519531-4.476562-9.996094-10-9.996094zm0 0"/><path d="m215.945312 240.441406h-165.957031c-5.519531 0-10 4.476563-10 9.996094v119.972656c0 5.519532 4.480469 9.996094 10 9.996094h165.957031c5.523438 0 10-4.476562 10-9.996094v-119.972656c0-5.519531-4.476562-9.996094-10-9.996094zm-18.136718 19.992188-61.34375 61.34375-18.921875-18.921875c-3.90625-3.90625-10.234375-3.90625-14.140625 0l-43.417969 43.417969v-85.835938h137.824219zm-123.683594 99.976562 36.347656-36.347656 18.925782 18.925781c3.902343 3.902344 10.230468 3.902344 14.136718 0l62.414063-62.414062v79.835937zm0 0"/><path d="m512 10.496094c0-5.519532-4.476562-9.996094-9.996094-9.996094h-206.015625c-16.324219 0-30.847656 7.859375-39.988281 19.988281-9.140625-12.128906-23.664062-19.988281-39.988281-19.988281h-206.015625c-5.519532 0-9.996094 4.476562-9.996094 9.996094v451.890625c0 5.519531 4.476562 9.996093 9.996094 9.996093h45.988281c5.523437 0 10-4.476562 10-9.996093s-4.476563-9.996094-10-9.996094h-35.988281v-20.058594h196.015625c13.066406 0 24.207031 8.382813 28.335937 20.058594h-89.386718c-5.519532 0-9.996094 4.476563-9.996094 9.996094s4.476562 9.996093 9.996094 9.996093h346.914062c5.519531 0 9.996094-4.476562 9.996094-9.996093zm-216.011719 10h196.015625v391.839844h-196.015625c-11.210937 0-21.574219 3.707031-29.925781 9.960937v-371.746094c0-.679687-.027344-1.351562-.050781-2.023437 1.042969-15.628906 14.085937-28.03125 29.976562-28.03125zm-79.976562 391.839844h-196.015625v-391.839844h196.015625c15.890625 0 28.933593 12.398437 29.976562 28.03125-.023437.671875-.050781 1.34375-.050781 2.023437v371.746094c-8.351562-6.253906-18.714844-9.960937-29.925781-9.960937zm51.640625 40.050781c4.128906-11.671875 15.269531-20.058594 28.335937-20.058594h195.890625v20.058594zm0 0"/><path d="m296.054688 260.433594h165.957031c5.519531 0 10-4.476563 10-9.996094s-4.480469-9.996094-10-9.996094h-165.957031c-5.523438 0-10 4.476563-10 9.996094s4.476562 9.996094 10 9.996094zm0 0"/><path d="m296.054688 300.425781h165.957031c5.519531 0 10-4.476562 10-9.996093 0-5.523438-4.480469-10-10-10h-165.957031c-5.523438 0-10 4.476562-10 10 0 5.519531 4.476562 9.996093 10 9.996093zm0 0"/><path d="m296.054688 340.414062h165.957031c5.519531 0 10-4.476562 10-9.996093s-4.480469-9.996094-10-9.996094h-165.957031c-5.523438 0-10 4.476563-10 9.996094s4.476562 9.996093 10 9.996093zm0 0"/><path d="m296.054688 380.40625h165.957031c5.519531 0 10-4.476562 10-9.996094 0-5.523437-4.480469-10-10-10h-165.957031c-5.523438 0-10 4.476563-10 10 0 5.519532 4.476562 9.996094 10 9.996094zm0 0"/><path d="m378.964844 80.480469c2.628906 0 5.210937-1.070313 7.070312-2.929688 1.867188-1.859375 2.929688-4.4375 2.929688-7.066406 0-2.632813-1.0625-5.210937-2.929688-7.070313-1.859375-1.859374-4.429687-2.929687-7.070312-2.929687-2.628906 0-5.207032 1.070313-7.066406 2.929687-1.859376 1.859376-2.929688 4.4375-2.929688 7.070313 0 2.628906 1.070312 5.207031 2.929688 7.066406 1.867187 1.859375 4.4375 2.929688 7.066406 2.929688zm0 0"/><path d="m296.054688 200.449219h165.957031c5.519531 0 10-4.476563 10-9.996094v-119.96875c0-5.523437-4.480469-10-10-10h-37.117188c-5.519531 0-9.996093 4.476563-9.996093 10 0 5.519531 4.476562 9.996094 9.996093 9.996094h27.121094v99.976562h-145.964844v-99.976562h26.867188c5.519531 0 9.996093-4.476563 9.996093-9.996094 0-5.523437-4.476562-10-9.996093-10h-36.863281c-5.523438 0-10 4.476563-10 10v119.96875c0 5.519531 4.476562 9.996094 10 9.996094zm0 0"/><path d="m106.304688 452.386719c-2.628907 0-5.210938 1.070312-7.070313 2.929687s-2.929687 4.441406-2.929687 7.070313c0 2.628906 1.070312 5.207031 2.929687 7.066406s4.441406 2.929687 7.070313 2.929687c2.628906 0 5.207031-1.070312 7.066406-2.929687 1.871094-1.859375 2.929687-4.4375 2.929687-7.066406 0-2.628907-1.058593-5.210938-2.929687-7.070313-1.859375-1.859375-4.4375-2.929687-7.066406-2.929687zm0 0"/></svg>